<svg xmlns="http://www.w3.org/2000/svg" viewBox="0 0 243.62 243.62" xmlns:v="https://vecta.io/nano"><defs><linearGradient id="A" x1="122" y1="-.81" x2="122" y2="30.27" gradientUnits="userSpaceOnUse"><stop offset="0" stop-color="#bcd5df"/><stop offset=".83" stop-color="#f1fafe"/></linearGradient><linearGradient id="B" x1="122" y1="30" x2="122" y2="244" gradientUnits="userSpaceOnUse"><stop offset="0" stop-color="#c2c7d8"/><stop offset=".08" stop-color="#fff"/></linearGradient><path id="C" d="M59.16 52.86c-.54 0-.96-.13-1.25-.39s-.44-.63-.44-1.1c0-.55.2-.97.61-1.26s.99-.44 1.73-.44c.31 0 .58.02.83.06.24.04.46.09.65.17l-.21.7a3.65 3.65 0 0 0-.64-.09l-.64-.01c-.9 0-1.35.27-1.35.82 0 .23.08.4.23.53.15.12.37.19.66.19.32 0 .59-.06.81-.17s.38-.25.49-.42.16-.35.16-.53v-.57l.3 1.33h-.41l.17-.16c0 .3-.07.55-.21.75s-.33.35-.58.45-.55.15-.89.15zm1.83-.05l-.07-1.53-.14-.43v-1.34c0-.35-.12-.6-.36-.76s-.6-.25-1.08-.26l-1.24-.03.1-.92h1.04c.86.03 1.49.21 1.91.57s.62.88.62 1.56v2.16l.88.11v.83l-1.66.05z"/><path id="D" d="M71.24 52.86c-.39 0-.72-.01-1-.03a5.33 5.33 0 0 1-.76-.11l.12-.94.91.12a6.46 6.46 0 0 0 .74.04c.52 0 .9-.05 1.14-.15s.35-.27.35-.49c0-.16-.04-.27-.12-.35s-.21-.14-.38-.18l-1.19-.3c-.51-.13-.89-.29-1.12-.48-.24-.19-.36-.48-.36-.87 0-.57.22-.98.65-1.23s1.13-.38 2.1-.38l.7.02a5.31 5.31 0 0 1 .67.08l-.11.9-.7-.05-.59-.01c-.58 0-1 .05-1.26.15s-.39.26-.39.49c0 .15.05.26.16.32a1.89 1.89 0 0 0 .49.18l.96.23c.54.13.94.3 1.19.52s.38.54.38.95c0 .56-.2.96-.61 1.21s-1.06.38-1.96.38z"/><path id="E" d="M74.91 48.49v-.91h4.69v.91h-4.69zm1.3 1.83v-4.3h1.04v4.3h-1.04zm2.23 2.54c-.78 0-1.35-.16-1.7-.49s-.53-.85-.53-1.56v-.88h1.04v.83c0 .41.1.71.3.89.2.19.53.28.99.28.16 0 .33 0 .52-.03l.62-.07.12.91-.67.09-.69.03z"/><path id="F" d="M81.21 52.76v-.91h2.07v.91h-2.07zm.29-4.27v-.91h2.71v.91H81.5zm2.17-1.72c-.2 0-.37-.07-.51-.21s-.21-.31-.21-.51.07-.37.21-.51.31-.21.51-.21.37.07.51.21.21.31.21.51-.07.37-.21.51-.31.21-.51.21zm-.49 5.99v-4.88h1.04v4.88h-1.04zm.94 0v-.91h1.69v.91h-1.69z"/><path id="G" d="M89.72 52.86c-.88 0-1.56-.23-2.04-.7-.48-.46-.72-1.13-.72-2s.23-1.5.68-1.97 1.1-.7 1.95-.7c.5 0 .94.09 1.3.28s.62.45.77.79l-.8.6a1.55 1.55 0 0 0-.56-.55c-.23-.13-.48-.2-.75-.2-.49 0-.87.15-1.14.44s-.41.71-.41 1.26c0 .59.16 1.04.48 1.35s.77.47 1.36.47l.72-.03.7-.09.12.91a5.53 5.53 0 0 1-.83.12l-.83.03z"/><path id="H" d="M92.93 52.76v-7.32h1.04v7.32h-1.04zm.73-1.96v-.93h.59c.43 0 .78-.07 1.06-.22s.49-.39.65-.73.27-.78.35-1.34h1.07c-.14 1.08-.44 1.88-.92 2.41s-1.13.8-1.97.8h-.83zm2.78 1.96l-1.47-2.52.98-.4 1.78 2.92h-1.28z"/><path id="I" d="M101.39 52.86c-.88 0-1.56-.23-2.04-.7-.48-.46-.72-1.13-.72-2s.2-1.5.61-1.97.98-.7 1.72-.7c.7 0 1.24.21 1.62.63s.57 1.04.57 1.85l-.03.66h-3.63v-.79h2.72c0-.47-.11-.82-.33-1.07s-.53-.37-.92-.37c-.44 0-.78.15-1.02.45s-.36.72-.36 1.27c0 .6.17 1.05.5 1.37.33.31.81.47 1.42.47a4.35 4.35 0 0 0 .63-.04l.63-.1.13.91c-.31.06-.59.1-.84.11l-.67.02z"/><path id="J" d="M104.26 52.76v-.91h3.46v.91h-3.46zm.19-4.27v-.91h1.73l.1.91h-1.83zm.96 4.27v-5.18h.84l.2 1.48v3.69h-1.04zm1.04-2.22l-.3-1.62h.4c.06-.95.53-1.43 1.43-1.43.53 0 .92.15 1.16.46s.36.8.36 1.48h-1.03c0-.38-.06-.65-.17-.82s-.29-.25-.54-.25c-.44 0-.77.19-.98.56-.22.38-.32.91-.32 1.6z"/><path id="K" d="M115.92 49.64v-.91h4.79v.91h-4.79zm1.63 3.12v-4.74c0-1.79.82-2.69 2.45-2.69.37 0 .73.03 1.07.1l-.11.9-.54-.05-.45-.01c-.92 0-1.39.57-1.39 1.71v4.79h-1.04z"/><path id="L" d="M121.84 52.76v-.91h3.46v.91h-3.46zm.19-4.27v-.91h1.73l.1.91h-1.83zm.96 4.27v-5.18h.84l.2 1.48v3.69h-1.04zm1.03-2.22l-.3-1.62h.4c.06-.95.53-1.43 1.43-1.43.53 0 .92.15 1.16.46s.36.8.36 1.48h-1.03c0-.38-.06-.65-.17-.82s-.29-.25-.54-.25c-.44 0-.77.19-.98.56-.22.38-.32.91-.32 1.6z"/><path id="M" d="M130.23 52.86c-.72 0-1.27-.23-1.67-.7s-.6-1.13-.6-1.98.2-1.52.6-1.98.95-.7 1.67-.7 1.28.23 1.67.7c.4.47.59 1.13.59 1.98s-.2 1.51-.59 1.98-.95.7-1.67.7zm0-.93c.38 0 .67-.15.88-.46s.31-.74.31-1.3-.1-1-.31-1.3-.5-.46-.88-.46-.67.15-.88.46c-.21.3-.31.74-.31 1.3s.1.99.31 1.3.5.46.88.46z"/><path id="N" d="M151.56 52.76v-7.32h1.04v7.32h-1.04zm3.19 0v-3.37c0-.33-.08-.58-.24-.76s-.39-.27-.68-.27c-.81 0-1.22.49-1.22 1.48l-.3-1.33h.4c.03-.35.16-.61.38-.78s.55-.26.99-.26c.55 0 .97.17 1.27.5s.45.8.45 1.41v3.37h-1.04z"/><path id="O" d="M168.8 46.35v-.91h1.61v.91h-1.61zm3.22 6.51c-.6 0-1.03-.16-1.3-.49s-.4-.85-.4-1.56v-5.37h1.04v5.32c0 .27.03.5.08.67s.15.3.3.38.38.12.67.12c.27 0 .62-.06 1.04-.19l.12.91c-.26.07-.52.12-.76.16-.24.03-.5.05-.78.05z"/><path id="P" d="M77.5 64.86c-.2 0-.37-.07-.51-.21s-.21-.31-.21-.51.07-.37.21-.51.31-.21.51-.21.37.07.51.21.21.31.21.51-.07.37-.21.51-.31.21-.51.21z"/><path id="Q" d="M98.79 64.76v-.91h2.07v.91h-2.07zm.29-4.27v-.91h2.71v.91h-2.71zm2.17-1.72c-.2 0-.37-.07-.51-.21s-.21-.31-.21-.51.07-.37.21-.51.31-.21.51-.21.37.07.51.21.21.31.21.51-.07.37-.21.51-.31.21-.51.21zm-.49 5.99v-4.88h1.04v4.88h-1.04zm.94 0v-.91h1.69v.91h-1.69z"/><path id="R" d="M110.51 64.76v-7.32h1.04v7.32h-1.04zm.73-1.96v-.93h.59c.43 0 .78-.07 1.06-.22s.49-.39.65-.73.27-.78.35-1.34h1.07c-.14 1.08-.44 1.88-.92 2.41s-1.13.8-1.97.8h-.83zm2.77 1.96l-1.47-2.52.98-.4 1.78 2.92h-1.28z"/><path id="S" d="M121.79 60.49v-.91h4.69v.91h-4.69zm1.3 1.83v-4.3h1.04v4.3h-1.04zm2.22 2.54c-.78 0-1.35-.16-1.7-.49s-.53-.85-.53-1.56v-.88h1.04v.83c0 .41.1.71.3.89.2.19.53.28.99.28.16 0 .33 0 .52-.03l.62-.07.12.91-.67.09-.69.03z"/><path id="T" d="M157.38 64.76v-.91h2.07v.91h-2.07zm.3-4.27v-.91h2.71v.91h-2.71zm2.16-1.72c-.2 0-.37-.07-.51-.21s-.21-.31-.21-.51.07-.37.21-.51.31-.21.51-.21.37.07.51.21.21.31.21.51-.07.37-.21.51-.31.21-.51.21zm-.48 5.99v-4.88h1.04v4.88h-1.04zm.93 0v-.91h1.69v.91h-1.69z"/><path id="U" d="M46.09 76.76v-5.18h.94l.1 1.09v4.08h-1.04zm3.19 0v-3.37c0-.31-.08-.55-.24-.72s-.39-.25-.68-.25c-.81 0-1.22.48-1.22 1.44l-.3-1.33h.4c.03-.35.16-.61.38-.78s.55-.26.99-.26c.55 0 .97.17 1.27.5s.45.8.45 1.41v3.37h-1.04z"/><path id="V" d="M57.38 76.76v-.91h3.46v.91h-3.46zm.2-4.27v-.91h1.73l.1.91h-1.83zm.96 4.27v-5.18h.84l.2 1.48v3.69h-1.04zm1.03-2.22l-.3-1.62h.4c.06-.95.53-1.43 1.43-1.43.53 0 .92.15 1.16.46s.36.8.36 1.48h-1.03c0-.38-.06-.65-.17-.82s-.29-.25-.54-.25c-.44 0-.77.19-.98.56-.22.38-.32.91-.32 1.6z"/><path id="W" d="M92.97 79.01v-7.42h.94l.1 1.09v6.33h-1.04zm2.5-2.15c-.4 0-.72-.09-.96-.27s-.38-.44-.41-.76h-.45l.35-1.47c0 .53.11.94.31 1.22.21.28.52.42.93.42s.73-.15.95-.44.32-.73.32-1.31c0-.61-.11-1.07-.32-1.39s-.53-.47-.95-.47-.71.14-.93.42c-.21.28-.31.68-.31 1.22l-.35-1.47h.4c.05-.33.19-.58.44-.76s.58-.27.98-.27c.68 0 1.19.23 1.54.69s.52 1.14.52 2.04-.17 1.52-.52 1.97-.86.67-1.54.67z"/><path id="X" d="M34.24 88.76v-6.93h1.02v6.93h-1.02zm.95 0v-.93h.73c.71 0 1.25-.2 1.61-.61s.54-1.02.54-1.83c0-.88-.18-1.54-.54-1.98s-.9-.66-1.61-.66h-.71l-.12-.93h.83c2.12 0 3.17 1.19 3.17 3.56 0 2.25-1.06 3.37-3.17 3.37h-.73z"/><path id="Y" d="M69.53 88.76v-7.32h1.04v7.32h-1.04zm3.18 0v-3.37c0-.33-.08-.58-.24-.76s-.39-.27-.68-.27c-.81 0-1.22.49-1.22 1.48l-.3-1.33h.4c.03-.35.16-.61.38-.78s.55-.26.99-.26c.55 0 .97.17 1.27.5s.45.8.45 1.41v3.37h-1.04z"/><path id="Z" d="M69.53 100.76v-5.18h.94l.1 1.09v4.08h-1.04zm3.18 0v-3.37c0-.31-.08-.55-.24-.72s-.39-.25-.68-.25c-.81 0-1.22.48-1.22 1.44l-.3-1.33h.4c.03-.35.16-.61.38-.78s.55-.26.99-.26c.55 0 .97.17 1.27.5s.45.8.45 1.41v3.37h-1.04z"/><path id="a" d="M77.1 100.86c-.68 0-1.19-.22-1.54-.67s-.53-1.1-.53-1.97.17-1.58.53-2.04c.35-.46.86-.69 1.54-.69.4 0 .73.09.98.27s.4.44.44.76h.4l-.35 1.47c0-.53-.11-.94-.31-1.22-.21-.28-.52-.42-.93-.42a1.1 1.1 0 0 0-.95.47c-.22.31-.32.77-.32 1.39 0 .58.11 1.02.32 1.31s.53.44.95.44.71-.14.93-.42c.21-.28.31-.68.31-1.22l.35 1.47h-.45c-.03.33-.17.58-.41.76s-.56.27-.96.27zm-1.64 2.24l-.05-.95 1.66-.05c.52-.02.91-.16 1.14-.43s.36-.68.36-1.21v-3.78l.1-1.09h.94v4.72c0 .92-.21 1.6-.63 2.04s-1.09.67-2.01.7l-1.51.05z"/><path id="b" d="M34.24 112.76v-6.93h1.02v6.93h-1.02zm.95-2.64v-.93h1.44c.39 0 .69-.1.91-.31s.32-.49.32-.86c0-.41-.11-.72-.32-.94-.22-.22-.52-.33-.91-.33h-1.42l-.12-.93h1.53c.72 0 1.28.18 1.67.55s.59.88.59 1.55-.2 1.24-.59 1.62-.95.58-1.67.58h-1.44zm2.77 2.64l-1.55-3.26h1.07l1.65 3.26h-1.17z"/><path id="c" d="M42.79 112.86c-.88 0-1.56-.23-2.04-.7-.48-.46-.72-1.13-.72-2s.2-1.5.61-1.97.98-.7 1.72-.7c.7 0 1.24.21 1.62.63s.57 1.04.57 1.85l-.03.66h-3.63v-.79h2.72c0-.46-.11-.82-.33-1.07s-.53-.37-.92-.37c-.44 0-.78.15-1.02.45s-.36.72-.36 1.27c0 .6.17 1.05.5 1.37.33.31.81.47 1.42.47a4.35 4.35 0 0 0 .63-.04l.63-.1.13.91c-.31.06-.59.1-.84.11-.25.02-.48.02-.67.02z"/><path id="d" d="M47.8 112.86c-.39 0-.72-.01-1-.03a5.33 5.33 0 0 1-.76-.11l.12-.94.91.12a6.46 6.46 0 0 0 .74.04c.52 0 .9-.05 1.14-.15s.35-.27.35-.49c0-.16-.04-.27-.12-.35s-.21-.14-.38-.18l-1.19-.3c-.51-.13-.89-.29-1.12-.48-.24-.19-.36-.48-.36-.87 0-.57.22-.98.65-1.23s1.13-.38 2.1-.38l.7.02a5.31 5.31 0 0 1 .67.08l-.11.9-.7-.05-.59-.01c-.58 0-1 .05-1.26.15s-.39.26-.39.49c0 .15.05.26.16.33s.27.13.49.18l.96.23c.54.13.94.3 1.19.52s.38.54.38.95c0 .56-.2.96-.61 1.21s-1.06.38-1.96.38z"/><path id="e" d="M76.99 112.86c-.54 0-.96-.16-1.26-.49-.3-.32-.45-.78-.45-1.37v-3.42h1.04V111c0 .3.08.53.25.69s.41.24.71.24c.38 0 .66-.12.85-.36s.29-.64.29-1.2l.26 1.4h-.34c-.08.35-.24.62-.48.81s-.53.28-.88.28zm1.44-1.56v-3.71h1.04v3.42l-1.04.29zm.09 1.51l-.09-1.24v-.91h1.04v1.16l.71.11v.83l-1.66.05z"/><path id="f" d="M100.54 112.86c-.68 0-1.19-.22-1.54-.67s-.53-1.1-.53-1.97.17-1.58.53-2.04c.35-.46.86-.69 1.54-.69.4 0 .73.09.98.27s.4.44.44.76h.4l-.35 1.47c0-.53-.11-.94-.31-1.22-.21-.28-.52-.42-.93-.42a1.1 1.1 0 0 0-.95.47c-.22.31-.32.78-.32 1.39s.11 1.02.32 1.31c.21.3.53.44.95.44s.71-.14.93-.42c.21-.28.31-.68.31-1.22l.35 1.47h-.45c-.03.33-.17.58-.41.76s-.56.27-.96.27zm-1.64 2.24l-.05-.95 1.66-.05c.52-.02.91-.16 1.14-.43s.36-.67.36-1.21v-3.78l.1-1.09h.94v4.72c0 .92-.21 1.6-.63 2.04s-1.09.67-2.01.7l-1.51.05z"/><path id="g" d="M116.41 112.76v-7.32h1.04v7.32h-1.04zm3.18 0v-3.37c0-.33-.08-.58-.24-.76s-.39-.27-.68-.27c-.81 0-1.22.5-1.22 1.48l-.3-1.33h.4c.03-.35.16-.61.38-.78s.55-.26.99-.26c.55 0 .97.17 1.27.5s.45.8.45 1.41v3.37h-1.04z"/><path id="h" d="M141.95 112.86c-.72 0-1.27-.23-1.67-.7s-.6-1.13-.6-1.98.2-1.52.6-1.98c.4-.47.95-.7 1.67-.7s1.28.23 1.67.7c.4.47.59 1.13.59 1.98s-.2 1.51-.59 1.98-.95.7-1.67.7zm0-.93c.38 0 .67-.15.88-.46s.31-.74.31-1.3-.1-1-.31-1.3-.5-.46-.88-.46-.67.15-.88.46c-.21.3-.31.74-.31 1.3s.1.99.31 1.3.5.46.88.46z"/><path id="i" d="M174.57 112.76v-.91h3.46v.91h-3.46zm.2-4.27v-.91h1.73l.1.91h-1.83zm.95 4.27v-5.18h.84l.2 1.48v3.69h-1.04zm1.04-2.22l-.3-1.62h.4c.06-.95.53-1.43 1.43-1.43.53 0 .92.15 1.16.46s.36.8.36 1.48h-1.03c0-.38-.06-.65-.17-.82s-.29-.25-.54-.25c-.44 0-.77.19-.98.56-.22.38-.32.91-.32 1.6z"/><path id="j" d="M41.58 124.86c-.54 0-.96-.13-1.25-.39-.3-.26-.44-.63-.44-1.1 0-.55.2-.97.61-1.26s.99-.44 1.73-.44c.31 0 .58.02.83.06.24.04.46.09.65.17l-.21.7c-.22-.05-.43-.08-.64-.08s-.42-.01-.64-.01c-.9 0-1.35.27-1.35.82 0 .23.08.4.23.53.15.12.37.19.66.19.32 0 .59-.05.81-.17.22-.11.38-.25.49-.42s.16-.35.16-.53v-.57l.3 1.33h-.41l.17-.16c0 .3-.07.55-.21.75s-.33.35-.58.45-.55.15-.89.15zm1.83-.05l-.07-1.53-.14-.43v-1.34c0-.34-.12-.6-.36-.76s-.6-.25-1.08-.26l-1.24-.03.1-.92h1.04c.86.03 1.49.21 1.91.57s.62.88.62 1.56v2.16l.88.11v.83l-1.66.05z"/><path id="k" d="M45.62 132.49v-.91h4.69v.91h-4.69zm1.29 1.83v-4.3h1.04v4.3h-1.04zm2.23 2.54c-.78 0-1.35-.16-1.7-.49s-.53-.85-.53-1.56v-.88h1.04v.83c0 .41.1.71.3.89.2.19.53.28.99.28.16 0 .33 0 .52-.03l.62-.07.12.91-.67.09-.69.03z"/><path id="l" d="M82.6 148.86c-.54 0-.96-.13-1.25-.39-.3-.26-.44-.63-.44-1.1 0-.55.2-.97.61-1.26s.99-.44 1.73-.44c.31 0 .58.02.83.06.24.04.46.09.65.17l-.21.7c-.22-.05-.43-.08-.64-.08s-.42-.01-.64-.01c-.9 0-1.35.27-1.35.82 0 .23.08.4.23.53.15.12.37.19.66.19.32 0 .59-.05.81-.17.22-.11.38-.25.49-.42s.16-.35.16-.53v-.57l.3 1.33h-.41l.17-.16c0 .3-.07.55-.21.75s-.33.35-.58.45-.55.15-.89.15zm1.82-.05l-.07-1.53-.14-.43v-1.34c0-.34-.12-.6-.36-.76s-.6-.25-1.08-.26l-1.24-.03.1-.92h1.04c.86.03 1.49.21 1.91.57s.62.88.62 1.56v2.16l.88.11v.83l-1.66.05z"/><path id="m" d="M41.84 184.86c-.54 0-.96-.16-1.26-.49-.3-.32-.45-.78-.45-1.37v-3.42h1.04V183c0 .3.08.53.25.69s.41.24.71.24c.38 0 .66-.12.85-.36s.29-.64.29-1.2l.26 1.4h-.34c-.08.35-.24.62-.48.81s-.53.28-.88.28zm1.43-1.56v-3.71h1.04v3.42l-1.04.29zm.09 1.51l-.09-1.24v-.91h1.04v1.16l.71.11v.83l-1.66.05z"/></defs><path d="M0-.81h244v31.08H0" fill="url(#A)"/><path d="M0 30h244v214H0z" fill="url(#B)"/><path d="M18.48 50.74c-.27 0-.51-.06-.73-.2s-.39-.3-.52-.52-.2-.46-.2-.73.07-.51.2-.73a1.44 1.44 0 0 1 .52-.52c.22-.13.46-.2.73-.2s.51.06.73.2.39.3.52.52.2.46.2.73-.07.51-.2.73a1.44 1.44 0 0 1-.52.52c-.22.13-.46.2-.73.2zm15.29 2.02l2-6.93h1.42l2 6.93h-1.03l-1.64-6.09h-.09l-1.64 6.09h-1.03zm.93-1.69v-.93h3.52v.93H34.7zm7.25 1.79c-.68 0-1.19-.22-1.54-.67s-.53-1.1-.53-1.97.17-1.58.53-2.04c.35-.46.86-.69 1.54-.69.39 0 .7.09.94.27a1.09 1.09 0 0 1 .43.76h.4l-.3 1.47c0-.53-.11-.94-.31-1.22-.21-.28-.52-.42-.93-.42a1.1 1.1 0 0 0-.95.47c-.22.31-.32.77-.32 1.39 0 .58.11 1.02.32 1.31s.53.44.95.44.71-.14.93-.42c.21-.28.31-.68.31-1.22l.35 1.47h-.45c-.03.33-.17.58-.41.76s-.56.27-.96.27zm1.58-.05l-.11-1.02v-6.36h1.04v7.32l-.93.05zm4.28.05c-.68 0-1.19-.22-1.54-.67s-.53-1.1-.53-1.97.17-1.58.53-2.04c.35-.46.86-.69 1.54-.69.39 0 .7.09.94.27a1.09 1.09 0 0 1 .43.76h.4l-.3 1.47c0-.53-.11-.94-.31-1.22-.21-.28-.52-.42-.93-.42a1.1 1.1 0 0 0-.95.47c-.22.31-.32.77-.32 1.39 0 .58.11 1.02.32 1.31s.53.44.95.44.71-.14.93-.42c.21-.28.31-.68.31-1.22l.35 1.47h-.45c-.03.33-.17.58-.41.76s-.56.27-.96.27zm1.57-.05l-.11-1.02v-6.36h1.04v7.32l-.93.05z"/><use href="#C"/><use href="#D"/><use href="#E"/><use href="#F"/><use href="#G"/><use href="#H"/><use href="#I"/><use href="#J"/><use href="#K"/><use href="#L"/><use href="#M"/><path d="M133.71 52.76v-5.18h.92l.12 1.09v4.08h-1.04zm1.94 0v-4.05c0-.29-.14-.44-.41-.44-.33 0-.5.23-.5.7l-.3-.74h.33c.04-.49.33-.74.89-.74.27 0 .48.09.64.28s.23.47.23.84v4.15h-.88zm1.79 0V48.8c0-.36-.13-.54-.4-.54-.34 0-.51.23-.51.7l-.35-.74h.4a.84.84 0 0 1 .24-.52c.14-.15.35-.22.63-.22.36 0 .62.1.78.29s.24.5.24.93v4.05h-1.04z"/><use href="#E" x="70.31"/><use href="#N"/><use href="#I" x="58.59"/><use href="#O"/><use href="#I" x="76.17"/><use href="#K" x="64.45"/><use href="#E" x="111.33"/><use href="#D" x="-35.16" y="12"/><path d="M40.2 64.76v-.91h2.07v.91H40.2zm.29-4.27v-.91h2.71v.91h-2.71zm2.16-1.72c-.2 0-.37-.07-.51-.21s-.21-.31-.21-.51.07-.37.21-.51.31-.21.51-.21.37.07.51.21.21.31.21.51-.07.37-.21.51-.31.21-.51.21zm-.48 5.99v-4.88h1.04v4.88h-1.04zm.94 0v-.91h1.69v.91h-1.69zm4.7.1c-.68 0-1.19-.22-1.54-.67s-.53-1.1-.53-1.97.17-1.58.53-2.04c.35-.46.86-.69 1.54-.69.39 0 .7.09.94.27a1.09 1.09 0 0 1 .43.76h.4l-.3 1.47c0-.53-.11-.94-.31-1.22-.21-.28-.52-.42-.93-.42a1.1 1.1 0 0 0-.95.47c-.22.31-.32.77-.32 1.39 0 .58.11 1.02.32 1.31s.53.44.95.44.71-.14.93-.42c.21-.28.31-.68.31-1.22l.35 1.47h-.45c-.03.33-.17.58-.41.76s-.56.27-.96.27zm1.57-.05l-.11-1.02v-6.36h1.04v7.32l-.93.05z"/><use href="#I" x="-46.88" y="12"/><path d="M57.79 64.76v-7.32h1.04v7.24l-1.04.09zm1.38.1c-.23 0-.47 0-.69-.03l-.69-.07.4-.95c.17.08.36.13.57.14l.62.02c.62 0 1.1-.19 1.44-.56s.51-.9.51-1.59c0-.47-.1-.83-.31-1.08s-.5-.38-.88-.38c-.88 0-1.32.49-1.32 1.48l-.3-1.33h.4c.05-.69.47-1.04 1.27-1.04.69 0 1.22.2 1.6.61s.57.98.57 1.73c0 .96-.28 1.71-.83 2.23-.55.53-1.34.79-2.35.79z"/><use href="#C" x="5.86" y="12"/><path d="M69.1 64.76v-.91h3.46v.91H69.1zm.2-4.27v-.91h1.73l.1.91H69.3zm.95 4.27v-5.18h.84l.2 1.48v3.69h-1.04zm1.04-2.22l-.3-1.62h.4c.06-.95.53-1.43 1.43-1.43.53 0 .92.15 1.16.46s.36.8.36 1.48h-1.03c0-.38-.06-.65-.17-.82s-.29-.25-.54-.25c-.44 0-.77.19-.98.56-.22.38-.32.91-.32 1.6z"/><use href="#P"/><path d="M89.94 64.86c-2.16 0-3.23-1.19-3.23-3.57 0-1.13.27-2 .82-2.62s1.31-.93 2.3-.93c.48 0 .9.08 1.25.23s.61.37.78.65l-.72.72a1.52 1.52 0 0 0-.56-.51c-.23-.12-.47-.18-.73-.18-.63 0-1.13.23-1.51.68s-.57 1.1-.57 1.93c0 1.82.78 2.72 2.35 2.72.47 0 .94-.1 1.4-.29l.22.86a4.9 4.9 0 0 1-1.79.33z"/><use href="#O" x="-76.17" y="12"/><use href="#Q"/><use href="#G" x="17.57" y="12"/><use href="#R"/><use href="#S"/><use href="#N" x="-23.44" y="12"/><use href="#I" x="35.15" y="12"/><use href="#D" x="76.17" y="12"/><use href="#E" x="76.17" y="12"/><use href="#T"/><use href="#G" x="76.17" y="12"/><use href="#H" x="76.17" y="12"/><use href="#I" x="76.17" y="12"/><use href="#J" x="76.17" y="12"/><use href="#D" x="123.05" y="12"/><use href="#M" x="70.32" y="12"/><use href="#G" x="-52.74" y="24"/><use href="#M" x="-87.89" y="24"/><use href="#U"/><path d="M51.47 72.49v-.91h4.69v.91h-4.69zm1.3 1.83v-4.3h1.04v4.3h-1.04zM55 76.86c-.78 0-1.35-.16-1.7-.49s-.53-.85-.53-1.56v-.88h1.04v.83c0 .41.1.71.3.89.2.19.53.28.99.28.16 0 .33 0 .52-.03l.62-.07.12.91-.67.09-.69.03z"/><use href="#V"/><use href="#M" x="-64.45" y="24"/><use href="#O" x="-99.61" y="24"/><use href="#D" x="5.86" y="24"/><path d="M88.46 76.86c-.54 0-.96-.13-1.25-.39s-.44-.63-.44-1.1c0-.55.2-.97.61-1.26s.99-.44 1.73-.44c.31 0 .58.02.83.06.24.04.46.09.65.17l-.21.7a3.65 3.65 0 0 0-.64-.09l-.64-.01c-.9 0-1.35.27-1.35.82 0 .23.08.4.23.53.15.12.37.19.66.19.32 0 .59-.06.81-.17s.38-.25.49-.42.16-.35.16-.53v-.57l.3 1.33h-.41l.17-.16c0 .3-.07.55-.21.75s-.33.35-.58.45-.55.15-.89.15zm1.82-.05l-.07-1.53-.14-.43v-1.34c0-.35-.12-.6-.36-.76s-.6-.25-1.08-.26l-1.24-.03.1-.92h1.04c.86.03 1.49.21 1.91.57s.62.88.62 1.56v2.16l.88.11v.83l-1.66.05z"/><use href="#W"/><use href="#W" x="5.86"/><use href="#I" x="5.86" y="24"/><use href="#C" x="52.73" y="24"/><use href="#L" x="-5.86" y="24"/><path d="M124.38 72.93c-.2 0-.37-.07-.51-.21s-.21-.31-.21-.51.07-.37.21-.51.31-.21.51-.21.37.07.51.21.21.31.21.51-.07.37-.21.51-.31.21-.51.21zm0 3.93c-.2 0-.37-.07-.51-.21s-.21-.31-.21-.51.07-.37.21-.51.31-.21.51-.21.37.07.51.21.21.31.21.51-.07.37-.21.51-.31.21-.51.21zm-105.9 9.88c-.27 0-.51-.06-.73-.2s-.39-.3-.52-.52-.2-.46-.2-.73.07-.51.2-.73a1.44 1.44 0 0 1 .52-.52c.22-.13.46-.2.73-.2s.51.06.73.2.39.3.52.52.2.46.2.73-.07.51-.2.73a1.44 1.44 0 0 1-.52.52c-.22.13-.46.2-.73.2z"/><use href="#X"/><path d="M39.8 88.76v-.91h3.46v.91H39.8zm.2-4.27v-.91h1.73l.1.91H40zm.96 4.27v-5.18h.84l.2 1.48v3.69h-1.04zm1.03-2.22l-.3-1.62h.4c.06-.95.53-1.43 1.43-1.43.53 0 .92.15 1.16.46s.36.8.36 1.48h-1.03c0-.38-.06-.65-.17-.82s-.29-.25-.54-.25c-.44 0-.77.19-.98.56-.22.38-.32.91-.32 1.6z"/><use href="#C" x="-11.72" y="36"/><path d="M53.67,88.86c-.68,0-1.19-.22-1.54-.67-.35-.45-.53-1.1-.53-1.97s.17-1.58.53-2.04c.35-.46.86-.69,1.54-.69.4,0,.73.09.98.27s.4.44.44.76h.4l-.35,1.47c0-.53-.11-.94-.31-1.22-.21-.28-.52-.42-.93-.42s-.73.16-.95.47-.32.77-.32,1.39c0,.58.11,1.02.32,1.31s.53.44.95.44.71-.14.93-.42c.21-.28.31-.68.31-1.22l.35,1.47h-.45c-.03.33-.17.58-.41.76-.24.18-.56.27-.96.27ZM52.02,91.1l-.05-.95,1.66-.05c.52-.02.91-.16,1.14-.43s.36-.68.36-1.21v-3.78l.1-1.09h.94v4.72c0,.92-.21,1.6-.63,2.04s-1.09.67-2.01.7l-1.51.05Z"/><use href="#E" x="-11.72" y="36"/><use href="#Y"/><use href="#I" x="-23.44" y="36"/><use href="#D" x="17.58" y="36"/><use href="#E" x="17.58" y="36"/><use href="#Q" y="24"/><use href="#G" x="17.57" y="36"/><use href="#R" y="24"/><use href="#I" x="17.57" y="36"/><use href="#L" y="36"/><path d="M133.96 88.76v-7.32H135v7.24l-1.04.09zm1.39.1c-.23 0-.47 0-.69-.03l-.69-.07.4-.95c.17.08.36.13.57.14l.62.02c.62 0 1.1-.19 1.44-.56s.51-.9.51-1.59c0-.47-.1-.83-.31-1.08s-.5-.38-.88-.38c-.88 0-1.32.49-1.32 1.48l-.3-1.33h.4c.05-.69.47-1.04 1.27-1.04.69 0 1.22.2 1.6.61s.57.98.57 1.73c0 .96-.28 1.71-.83 2.23-.55.53-1.34.79-2.35.79zm6-.1l-2.06-5.18h1.07l1.69 4.39h.16v.78h-.86zm-1.96 2.35l-.05-.93.81-.1c.34-.04.63-.14.88-.28.24-.14.45-.36.62-.64s.32-.65.45-1.11l1.29-4.47h1.07l-1.49 4.72c-.2.62-.41 1.12-.66 1.49-.24.38-.53.66-.86.85s-.73.31-1.19.36l-.88.1z"/><use href="#G" x="-52.74" y="48"/><path d="M39.89 94.35v-.91h1.61v.91h-1.61zm3.23 6.51c-.6 0-1.03-.16-1.3-.49s-.4-.85-.4-1.56v-5.37h1.04v5.32c0 .27.03.5.08.67s.15.3.3.38.38.12.67.12c.27 0 .62-.06 1.04-.19l.12.91c-.26.07-.52.12-.76.16-.24.03-.5.05-.78.05z"/><use href="#T" x="-111.33" y="36"/><use href="#G" x="-35.16" y="48"/><path d="M57.77 100.76v-7.32h1.04v7.32h-1.04zm.74-1.96v-.93h.59c.43 0 .78-.07 1.06-.22s.49-.39.65-.73.27-.78.35-1.34h1.07c-.14 1.08-.44 1.88-.92 2.41s-1.13.8-1.97.8h-.83zm2.77 1.96l-1.47-2.52.98-.4 1.78 2.92h-1.28z"/><use href="#T" x="-93.75" y="36"/><use href="#Z"/><use href="#a"/><path d="M80.99,101.69l3.93-8.79h1.04l-3.93,8.79h-1.04Z"/><use href="#E" x="11.72" y="48"/><use href="#M" x="-35.15" y="48"/><path d="M100.43 100.86c-.54 0-.96-.16-1.26-.49-.3-.32-.45-.78-.45-1.37v-3.42h1.04V99c0 .3.08.52.25.69s.41.24.71.24c.38 0 .66-.12.85-.36s.29-.64.29-1.2l.26 1.4h-.34c-.08.35-.24.62-.48.81s-.53.28-.88.28zm1.44-1.56v-3.71h1.04v3.42l-1.04.29zm.08 1.51l-.09-1.24v-.91h1.04v1.16l.71.11v.83l-1.66.05z"/><use href="#G" x="17.57" y="48"/><use href="#Y" x="41.02" y="12"/><path d="M116.37 100.76v-.91h2.07v.91h-2.07zm.29-4.27v-.91h2.71v.91h-2.71zm2.16-1.72c-.2 0-.37-.07-.51-.21s-.21-.31-.21-.51.07-.37.21-.51.31-.21.51-.21.37.07.51.21.21.31.21.51-.07.37-.21.51-.31.21-.51.21zm-.48 5.99v-4.88h1.04v4.88h-1.04zm.94 0v-.91h1.69v.91h-1.69z"/><use href="#Z" x="52.74"/><path d="M129.84 100.86c-.68 0-1.19-.22-1.54-.67s-.53-1.1-.53-1.97.17-1.58.53-2.04c.35-.46.86-.69 1.54-.69.4 0 .73.09.98.27s.4.44.44.76h.4l-.35 1.47c0-.53-.11-.94-.31-1.22-.21-.28-.52-.42-.93-.42a1.1 1.1 0 0 0-.95.47c-.22.31-.32.77-.32 1.39 0 .58.11 1.02.32 1.31s.53.44.95.44.71-.14.93-.42c.21-.28.31-.68.31-1.22l.35 1.47h-.45c-.03.33-.17.58-.41.76s-.56.27-.96.27zm-1.65 2.24l-.05-.95 1.66-.05c.52-.02.91-.16 1.14-.43s.36-.68.36-1.21v-3.78l.1-1.09h.94v4.72c0 .92-.21 1.6-.63 2.04s-1.09.67-2.01.7l-1.51.05z"/><use href="#C" x="82.03" y="48"/><use href="#U" x="99.61" y="24"/><path d="M153.28 100.86c-.68 0-1.19-.22-1.54-.67s-.53-1.1-.53-1.97.17-1.58.53-2.04c.35-.46.86-.69 1.54-.69.39 0 .7.09.94.27a1.09 1.09 0 0 1 .43.76h.4l-.3 1.47c0-.53-.11-.94-.31-1.22-.21-.28-.52-.42-.93-.42a1.1 1.1 0 0 0-.95.47c-.22.31-.32.77-.32 1.39 0 .58.11 1.02.32 1.31s.53.44.95.44.71-.14.93-.42c.21-.28.31-.68.31-1.22l.35 1.47h-.45c-.03.33-.17.58-.41.76s-.56.27-.96.27zm1.57-.05l-.11-1.02v-6.36h1.04v7.32l-.93.05zm8.16-.05v-5.18h.92l.12 1.09v4.08h-1.04zm1.94 0v-4.05c0-.29-.14-.44-.41-.44-.33 0-.5.23-.5.7l-.3-.74h.33c.04-.49.33-.74.89-.74.27 0 .48.09.64.28s.23.47.23.84v4.15h-.88zm1.79 0V96.8c0-.36-.13-.54-.4-.54-.34 0-.51.23-.51.7l-.35-.74h.4a.84.84 0 0 1 .24-.52c.14-.15.35-.22.63-.22.36 0 .62.1.78.29s.24.5.24.93v4.05h-1.04z"/><use href="#M" x="41.02" y="48"/><path d="M176.42,100.76l-1.85-5.18h1.1l1.39,4.3h.09l1.39-4.3h1.1l-1.85,5.18h-1.38Z"/><use href="#Q" x="82.03" y="36"/><use href="#Z" x="117.19"/><use href="#a" x="117.19"/><use href="#P" x="123.05" y="36"/><path d="M18.48,110.74c-.27,0-.51-.06-.73-.2-.22-.13-.39-.3-.52-.52-.13-.22-.2-.46-.2-.73s.07-.51.2-.73c.13-.22.3-.39.52-.52.22-.13.46-.2.73-.2s.51.07.73.2c.22.13.39.3.52.52.13.22.2.46.2.73s-.07.51-.2.73c-.13.22-.3.39-.52.52-.22.13-.46.2-.73.2Z"/><use href="#b"/><use href="#c"/><use href="#d"/><use href="#T" x="-105.47" y="48"/><path d="M57.79 108.5v-.92h4.16v.92h-4.16zm.72 3.94l-.71-.6 3.45-3.92.71.58-3.45 3.94zm-.72.32v-.92h4.26v.92h-4.26z"/><use href="#c" x="23.44"/><use href="#e"/><use href="#d" x="35.16"/><use href="#Q" x="-11.72" y="48"/><use href="#Z" x="23.44" y="12"/><use href="#f"/><use href="#S" x="-11.72" y="48"/><use href="#g"/><use href="#c" x="82.03"/><use href="#K" x="17.58" y="60"/><use href="#h"/><use href="#e" x="70.31"/><use href="#V" x="93.75" y="36"/><use href="#G" x="76.17" y="60"/><use href="#h" x="29.3"/><use href="#i"/><use href="#Z" x="111.33" y="12"/><use href="#c" x="146.49"/><use href="#J" x="87.89" y="60"/><use href="#g" x="-82.03" y="12"/><use href="#j"/><use href="#U" y="48"/><path d="M53.67,124.86c-.68,0-1.19-.22-1.54-.67-.35-.45-.53-1.1-.53-1.97s.17-1.58.53-2.04c.35-.46.86-.69,1.54-.69.39,0,.7.09.94.27.24.18.39.44.43.76h.4l-.3,1.47c0-.53-.11-.94-.31-1.22-.21-.28-.52-.42-.93-.42s-.73.16-.95.47-.32.78-.32,1.39.11,1.02.32,1.31c.21.3.53.44.95.44s.71-.14.93-.42c.21-.28.31-.68.31-1.22l.35,1.47h-.45c-.03.33-.17.58-.41.76-.24.18-.56.27-.96.27ZM55.24,124.81l-.11-1.02v-6.36h1.04v7.32l-.93.05Z"/><use href="#O" x="-111.33" y="72"/><use href="#c" x="23.44" y="12"/><use href="#d" x="23.44" y="12"/><use href="#P" y="60"/><path d="M18.48,134.74c-.27,0-.51-.06-.73-.2-.22-.13-.39-.3-.52-.52-.13-.22-.2-.46-.2-.73s.07-.51.2-.73c.13-.22.3-.39.52-.52.22-.13.46-.2.73-.2s.51.07.73.2c.22.13.39.3.52.52.13.22.2.46.2.73s-.07.51-.2.73c-.13.22-.3.39-.52.52-.22.13-.46.2-.73.2Z"/><use href="#b" y="24"/><use href="#h" x="-99.61" y="24"/><use href="#k"/><use href="#j" x="11.72" y="12"/><use href="#E" x="-17.58" y="84"/><use href="#c" x="23.44" y="24"/><path d="M76.99 136.86c-.54 0-.96-.16-1.26-.49-.3-.32-.45-.78-.45-1.37v-3.42h1.04V135c0 .3.08.53.25.69s.41.24.71.24c.38 0 .66-.12.85-.36s.29-.64.29-1.2l.26 1.4h-.34c-.08.35-.24.62-.48.81s-.53.28-.88.28zm1.44-1.56v-3.71h1.04v3.42l-1.04.29zm.09 1.51l-.09-1.24v-.91h1.04v1.16l.71.11v.83l-1.66.05z"/><use href="#d" x="35.16" y="24"/><use href="#Q" x="-11.72" y="72"/><use href="#Z" x="23.44" y="36"/><use href="#f" y="24"/><use href="#S" x="-11.72" y="72"/><use href="#g" y="24"/><use href="#c" x="82.03" y="24"/><use href="#k" x="87.89"/><use href="#h" y="24"/><path d="M145.7 139.01v-7.42h.94l.1 1.09v6.33h-1.04zm2.51-2.15c-.4 0-.72-.09-.96-.27s-.38-.44-.41-.76h-.45l.35-1.47c0 .53.11.94.31 1.22.21.28.52.42.93.42s.73-.15.95-.44c.21-.3.32-.73.32-1.31 0-.61-.11-1.07-.32-1.39s-.53-.47-.95-.47-.71.14-.93.42c-.21.28-.31.68-.31 1.22l-.35-1.47h.4c.05-.33.19-.58.44-.76s.58-.27.98-.27c.68 0 1.19.23 1.54.69s.52 1.14.52 2.04-.17 1.52-.52 1.97-.86.67-1.54.67z"/><use href="#G" x="70.31" y="84"/><path d="M163.24 136.76v-.91h2.07v.91h-2.07zm.3-4.27v-.91h2.71v.91h-2.71zm2.16-1.72c-.2 0-.37-.07-.51-.21s-.21-.31-.21-.51.07-.37.21-.51.31-.21.51-.21.37.07.51.21.21.31.21.51-.07.37-.21.51-.31.21-.51.21zm-.49 5.99v-4.88h1.04v4.88h-1.04zm.94 0v-.91h1.69v.91h-1.69z"/><use href="#i" x="-5.86" y="24"/><use href="#G" x="87.89" y="84"/><path d="M182.46 136.86c-.54 0-.96-.16-1.26-.49-.3-.32-.45-.78-.45-1.37v-3.42h1.04V135c0 .3.08.53.25.69s.41.24.71.24c.38 0 .66-.12.85-.36s.29-.64.29-1.2l.26 1.4h-.34c-.08.35-.24.62-.48.81s-.53.28-.88.28zm1.44-1.56v-3.71h1.04v3.42l-1.04.29zm.08 1.51l-.09-1.24v-.91h1.04v1.16l.71.11v.83l-1.66.05z"/><use href="#O" x="17.58" y="84"/><path d="M193.93 136.86c-.54 0-.96-.13-1.25-.39-.3-.26-.44-.63-.44-1.1 0-.55.2-.97.61-1.26s.99-.44 1.73-.44c.31 0 .58.02.83.06.24.04.46.09.65.17l-.21.7c-.22-.05-.43-.08-.64-.08s-.42-.01-.64-.01c-.9 0-1.35.27-1.35.82 0 .23.08.4.23.53.15.12.37.19.66.19.32 0 .59-.05.81-.17.22-.11.38-.25.49-.42s.16-.35.16-.53v-.57l.3 1.33h-.41l.17-.16c0 .3-.07.55-.21.75s-.33.35-.58.45-.55.15-.89.15zm1.82-.05l-.07-1.53-.14-.43v-1.34c0-.34-.12-.6-.36-.76s-.6-.25-1.08-.26l-1.24-.03.1-.92H194c.86.03 1.49.21 1.91.57s.62.88.62 1.56v2.16l.88.11v.83l-1.66.05z"/><use href="#J" x="93.75" y="84"/><path d="M33.95 148.76v-.91h3.46v.91h-3.46zm.19-4.27v-.91h1.73l.1.91h-1.83zm.96 4.27v-5.18h.84l.2 1.48v3.69H35.1zm1.03-2.22l-.3-1.62h.4c.06-.95.53-1.43 1.43-1.43.53 0 .92.15 1.16.46s.36.8.36 1.48h-1.03c0-.38-.06-.65-.17-.82s-.29-.25-.54-.25c-.44 0-.77.19-.98.56-.22.38-.32.91-.32 1.6z"/><use href="#h" x="-99.61" y="36"/><use href="#k" y="12"/><use href="#j" x="11.72" y="24"/><use href="#E" x="-17.58" y="96"/><use href="#c" x="23.44" y="36"/><use href="#g" x="-41.02" y="36"/><use href="#l"/><path d="M87.11 148.76v-5.18h.94l.1 1.09v4.08h-1.04zm3.18 0v-3.37c0-.31-.08-.55-.24-.72s-.39-.25-.68-.25c-.81 0-1.22.48-1.22 1.44l-.3-1.33h.4c.03-.35.16-.61.38-.78s.55-.26.99-.26c.55 0 .97.17 1.27.5s.45.8.45 1.41v3.37H90.3zm4.39.1c-.68 0-1.19-.22-1.54-.67s-.53-1.1-.53-1.97.17-1.58.53-2.04c.35-.46.86-.69 1.54-.69.39 0 .7.09.94.27a1.09 1.09 0 0 1 .43.76h.4l-.3 1.47c0-.53-.11-.94-.31-1.22-.21-.28-.52-.42-.93-.42a1.1 1.1 0 0 0-.95.47c-.22.31-.32.78-.32 1.39s.11 1.02.32 1.31c.21.3.53.44.95.44s.71-.14.93-.42c.21-.28.31-.68.31-1.22l.35 1.47h-.45c-.03.33-.17.58-.41.76s-.56.27-.96.27zm1.58-.05l-.11-1.02v-6.36h1.04v7.32l-.93.05z"/><use href="#O" x="-70.31" y="96"/><use href="#c" x="64.46" y="36"/><path d="M120.22 149.74c-1.06 0-1.88-.39-2.46-1.17s-.88-1.88-.88-3.3.29-2.49.88-3.26c.58-.77 1.41-1.16 2.46-1.16h.23v.88h-.14c-.77 0-1.37.31-1.79.93s-.63 1.49-.63 2.61.21 2.02.63 2.65 1.01.94 1.79.94h.14v.88h-.23zm3.76-.88c-.68 0-1.19-.22-1.54-.67s-.53-1.1-.53-1.97.17-1.58.53-2.04c.35-.46.86-.69 1.54-.69.39 0 .7.09.94.27a1.09 1.09 0 0 1 .43.76h.4l-.3 1.47c0-.53-.11-.94-.31-1.22-.21-.28-.52-.42-.93-.42a1.1 1.1 0 0 0-.95.47c-.22.31-.32.78-.32 1.39s.11 1.02.32 1.31c.21.3.53.44.95.44s.71-.14.93-.42c.21-.28.31-.68.31-1.22l.35 1.47h-.45c-.03.33-.17.58-.41.76s-.56.27-.96.27zm1.58-.05l-.11-1.02v-6.36h1.04v7.32l-.93.05z"/><use href="#L" x="5.86" y="96"/><use href="#j" x="93.75" y="24"/><path d="M141.56 148.86c-.68 0-1.19-.22-1.54-.67s-.53-1.1-.53-1.97.17-1.58.53-2.04c.35-.46.86-.69 1.54-.69.4 0 .73.09.98.27s.4.44.44.76h.4l-.35 1.47c0-.53-.11-.94-.31-1.22-.21-.28-.52-.42-.93-.42a1.1 1.1 0 0 0-.95.47c-.22.31-.32.78-.32 1.39s.11 1.02.32 1.31c.21.3.53.44.95.44s.71-.14.93-.42c.21-.28.31-.68.31-1.22l.35 1.47h-.45c-.03.33-.17.58-.41.76s-.56.27-.96.27zm-1.65 2.24l-.05-.95 1.66-.05c.52-.02.91-.16 1.14-.43s.36-.67.36-1.21v-3.78l.1-1.09h.94v4.72c0 .92-.21 1.6-.63 2.04s-1.09.67-2.01.7l-1.51.05z"/><use href="#T" x="-5.86" y="84"/><use href="#E" x="82.03" y="96"/><use href="#l" x="87.89"/><use href="#i" y="36"/><use href="#h" x="41.02" y="36"/><path d="M188.32 148.86c-.54 0-.96-.16-1.26-.49-.3-.32-.45-.78-.45-1.37v-3.42h1.04V147c0 .3.08.53.25.69s.41.24.71.24c.38 0 .66-.12.85-.36s.29-.64.29-1.2l.26 1.4h-.34c-.08.35-.24.62-.48.81s-.53.28-.88.28zm1.44-1.56v-3.71h1.04v3.42l-1.04.29zm.08 1.51l-.09-1.24v-.91h1.04v1.16l.71.11v.83l-1.66.05z"/><use href="#Z" x="123.05" y="48"/><path d="M200.15 148.86c-.68 0-1.19-.22-1.54-.67s-.53-1.1-.53-1.97.17-1.58.53-2.04c.35-.46.86-.69 1.54-.69.39 0 .7.09.94.27a1.09 1.09 0 0 1 .43.76h.4l-.3 1.47c0-.53-.11-.94-.31-1.22-.21-.28-.52-.42-.93-.42a1.1 1.1 0 0 0-.95.47c-.22.31-.32.78-.32 1.39s.11 1.02.32 1.31c.21.3.53.44.95.44s.71-.14.93-.42c.21-.28.31-.68.31-1.22l.35 1.47h-.45c-.03.33-.17.58-.41.76s-.56.27-.96.27zm1.58-.05l-.11-1.02v-6.36h1.04v7.32l-.93.05zM33.9 156.49v-.91h4.69v.91H33.9zm1.3 1.83v-4.3h1.04v4.3H35.2zm2.22 2.54c-.78 0-1.35-.16-1.7-.49s-.53-.85-.53-1.56v-.88h1.04v.83c0 .41.1.71.3.89.2.19.53.28.99.28.16 0 .33 0 .52-.03l.62-.07.12.91-.67.09-.69.03zm2.81-.1v-7.32h1.04v7.32h-1.04zm3.19 0v-3.37c0-.33-.08-.58-.24-.76s-.39-.27-.68-.27c-.81 0-1.22.5-1.22 1.48l-.3-1.33h.4c.03-.35.16-.61.38-.78s.55-.26.99-.26c.55 0 .97.17 1.27.5s.45.8.45 1.41v3.37h-1.04z"/><use href="#c" x="5.86" y="48"/><use href="#G" x="-29.3" y="108"/><use href="#c" x="23.44" y="48"/><use href="#Z" y="60"/><use href="#E" y="108"/><use href="#c" x="41.02" y="48"/><use href="#i" x="-87.89" y="48"/><path d="M93.13 161.74v-.88h.14c.77 0 1.37-.31 1.79-.94s.63-1.51.63-2.65-.21-1.99-.63-2.61-1.01-.93-1.79-.93h-.14v-.88h.23c1.06 0 1.88.38 2.47 1.16.58.77.87 1.86.87 3.26s-.29 2.52-.87 3.3-1.4 1.17-2.47 1.17h-.23z"/><use href="#P" x="23.44" y="96"/><path d="M18.48,170.74c-.27,0-.51-.06-.73-.2-.22-.13-.39-.3-.52-.52-.13-.22-.2-.46-.2-.73s.07-.51.2-.73c.13-.22.3-.39.52-.52.22-.13.46-.2.73-.2s.51.07.73.2c.22.13.39.3.52.52.13.22.2.46.2.73s-.07.51-.2.73c-.13.22-.3.39-.52.52-.22.13-.46.2-.73.2Z"/><use href="#X" y="84"/><use href="#c" y="60"/><use href="#O" x="-123.05" y="120"/><use href="#c" x="11.72" y="60"/><use href="#E" x="-17.58" y="120"/><use href="#c" x="23.44" y="60"/><path d="M75.5 172.76l-.59-5.18h.98l.39 4.39h.09l.61-4.39h.95l-.43 1.06h-.07l-.61 4.11H75.5zm2.59 0l-.61-4.11h-.08l-.42-1.06h.95l.61 4.39h.09l.44-4.39h1.03l-.73 5.18H78.1z"/><use href="#F" y="120"/><use href="#E" x="11.72" y="120"/><use href="#g" x="-23.44" y="60"/><use href="#S" x="-17.58" y="108"/><use href="#g" x="-5.86" y="60"/><use href="#c" x="76.17" y="60"/><use href="#L" x="5.86" y="120"/><use href="#c" x="93.75" y="60"/><path d="M141.56,172.86c-.68,0-1.19-.22-1.54-.67-.35-.45-.53-1.1-.53-1.97s.17-1.58.53-2.04c.35-.46.86-.69,1.54-.69.39,0,.7.09.94.27.24.18.39.44.43.76h.4l-.3,1.47c0-.53-.11-.94-.31-1.22-.21-.28-.52-.42-.93-.42s-.73.16-.95.47-.32.78-.32,1.39.11,1.02.32,1.31c.21.3.53.44.95.44s.71-.14.93-.42c.21-.28.31-.68.31-1.22l.35,1.47h-.45c-.03.33-.17.58-.41.76-.24.18-.56.27-.96.27ZM143.13,172.81l-.11-1.02v-6.36h1.04v7.32l-.93.05Z"/><use href="#G" x="64.45" y="120"/><use href="#T" y="108"/><path d="M162.85 172.76v-.91h3.46v.91h-3.46zm.2-4.27v-.91h1.73l.1.91h-1.83zm.95 4.27v-5.18h.84l.2 1.48v3.69H164zm1.04-2.22l-.3-1.62h.4c.06-.95.53-1.43 1.43-1.43.53 0 .92.15 1.16.46s.36.8.36 1.48h-1.03c0-.38-.06-.65-.17-.82s-.29-.25-.54-.25c-.44 0-.77.19-.98.56-.22.38-.32.91-.32 1.6z"/><use href="#G" x="82.03" y="120"/><path d="M176.6 172.86c-.54 0-.96-.16-1.26-.49-.3-.32-.45-.78-.45-1.37v-3.42h1.04V171c0 .3.08.53.25.69s.41.24.71.24c.38 0 .66-.12.85-.36s.29-.64.29-1.2l.26 1.4h-.34c-.08.35-.24.62-.48.81s-.53.28-.88.28zm1.44-1.56v-3.71h1.04v3.42l-1.04.29zm.08 1.51l-.09-1.24v-.91h1.04v1.16l.71.11v.83l-1.66.05z"/><use href="#O" x="11.72" y="120"/><use href="#l" x="105.47" y="24"/><use href="#J" x="87.89" y="120"/><path d="M34.35 184.76v-7.32h1.04v7.24l-1.04.09zm1.39.1c-.23 0-.47 0-.69-.03l-.69-.07.4-.95c.17.08.36.13.57.14l.62.02c.62 0 1.1-.19 1.44-.56s.51-.9.51-1.59c0-.47-.1-.83-.31-1.08s-.5-.38-.88-.38c-.88 0-1.32.5-1.32 1.48l-.3-1.33h.4c.05-.69.47-1.04 1.27-1.04.69 0 1.22.2 1.6.61s.57.99.57 1.73c0 .96-.28 1.71-.83 2.23-.55.53-1.34.79-2.35.79z"/><use href="#m"/><use href="#k" y="48"/><use href="#E" x="-23.44" y="132"/><use href="#h" x="-82.03" y="72"/><use href="#U" x="17.58" y="108"/><use href="#l" x="-5.86" y="36"/><use href="#Z" x="11.72" y="84"/><path d="M88.82,184.86c-.68,0-1.19-.22-1.54-.67-.35-.45-.53-1.1-.53-1.97s.17-1.58.53-2.04c.35-.46.86-.69,1.54-.69.39,0,.7.09.94.27.24.18.39.44.43.76h.4l-.3,1.47c0-.53-.11-.94-.31-1.22-.21-.28-.52-.42-.93-.42s-.73.16-.95.47-.32.78-.32,1.39.11,1.02.32,1.31c.21.3.53.44.95.44s.71-.14.93-.42c.21-.28.31-.68.31-1.22l.35,1.47h-.45c-.03.33-.17.58-.41.76-.24.18-.56.27-.96.27ZM90.4,184.81l-.11-1.02v-6.36h1.04v7.32l-.93.05Z"/><use href="#g" x="-17.58" y="72"/><use href="#l" x="23.44" y="36"/><path d="M111.97,184.76l-1.85-5.18h1.1l1.39,4.3h.09l1.39-4.3h1.1l-1.85,5.18h-1.38Z"/><use href="#c" x="76.17" y="72"/><use href="#K" x="11.72" y="132"/><use href="#m" x="93.75"/><use href="#U" x="93.75" y="108"/><path d="M153.28,184.86c-.68,0-1.19-.22-1.54-.67-.35-.45-.53-1.1-.53-1.97s.17-1.58.53-2.04c.35-.46.86-.69,1.54-.69.39,0,.7.09.94.27.24.18.39.44.43.76h.4l-.3,1.47c0-.53-.11-.94-.31-1.22-.21-.28-.52-.42-.93-.42s-.73.16-.95.47-.32.78-.32,1.39.11,1.02.32,1.31c.21.3.53.44.95.44s.71-.14.93-.42c.21-.28.31-.68.31-1.22l.35,1.47h-.45c-.03.33-.17.58-.41.76-.24.18-.56.27-.96.27ZM154.85,184.81l-.11-1.02v-6.36h1.04v7.32l-.93.05Z"/><use href="#c" x="117.19" y="72"/><use href="#G" x="76.17" y="132"/><use href="#h" x="29.3" y="72"/><use href="#i" y="72"/><use href="#l" x="99.61" y="36"/><use href="#E" x="111.33" y="132"/><use href="#Q" x="93.75" y="120"/><use href="#Z" x="128.91" y="84"/><use href="#f" x="105.47" y="72"/><path d="M35.88 196.76l-2.06-5.18h1.07l1.69 4.39h.16v.78h-.86zm-1.96 2.35l-.05-.93.81-.1c.34-.04.63-.13.88-.28.24-.14.45-.36.62-.64s.32-.65.45-1.11l1.29-4.47h1.07l-1.49 4.72c-.2.62-.41 1.12-.66 1.49-.24.38-.53.66-.86.85s-.73.31-1.19.36l-.88.1z"/><use href="#h" x="-99.61" y="84"/><path d="M47.7 196.86c-.54 0-.96-.16-1.26-.49-.3-.32-.45-.78-.45-1.37v-3.42h1.04V195c0 .3.08.53.25.69s.41.24.71.24c.38 0 .66-.12.85-.36s.29-.64.29-1.2l.26 1.4h-.34c-.08.35-.24.62-.48.81s-.53.28-.88.28zm1.43-1.56v-3.71h1.04v3.42l-1.04.29zm.09 1.51l-.09-1.24v-.91h1.04v1.16l.71.11v.83l-1.66.05z"/><use href="#V" x="-5.86" y="120"/><path d="M63.67 199.01v-7.42h.94l.1 1.09v6.33h-1.04zm2.51-2.15c-.4 0-.72-.09-.96-.27s-.38-.44-.41-.76h-.45l.35-1.47c0 .53.11.94.31 1.22.21.28.52.42.93.42s.73-.15.95-.44.32-.73.32-1.31c0-.61-.11-1.07-.32-1.39s-.53-.47-.95-.47-.71.14-.93.42c-.21.28-.31.68-.31 1.22l-.35-1.47h.4c.05-.33.19-.58.44-.76s.58-.27.98-.27c.68 0 1.19.23 1.54.69s.52 1.14.52 2.04-.17 1.52-.52 1.97-.86.67-1.54.67z"/><use href="#g" x="-46.88" y="84"/><use href="#h" x="-64.45" y="84"/><use href="#E" x="5.86" y="144"/><use href="#h" x="-52.73" y="84"/><path d="M95.08 196.86c-.2 0-.37-.07-.51-.21s-.21-.31-.21-.51.07-.37.21-.51.31-.21.51-.21.37.07.51.21.21.31.21.51-.07.37-.21.51-.31.21-.51.21zm-.43-2.32l-.08-4.76h1.02l-.1 4.76h-.84z"/><text fill="#677c7c" font-family="CascadiaCodeRoman-Bold,Cascadia Code" font-size="14.84" font-weight="700"><tspan x="25.93" y="21.7">INSTRUCTIONS</tspan></text></svg>