<?xml version="1.0" encoding="UTF-8"?>
<svg id="Layer_1" data-name="Layer 1" xmlns="http://www.w3.org/2000/svg" xmlns:xlink="http://www.w3.org/1999/xlink" viewBox="0 0 221 42">
  <defs>
    <style>
      .cls-1 {
        filter: url(#drop-shadow-1);
      }

      .cls-2 {
        fill: #fff;
        stroke-width: 0px;
      }
    </style>
    <filter id="drop-shadow-1" filterUnits="userSpaceOnUse">
      <feOffset dx=".52" dy=".52"/>
      <feGaussianBlur result="blur" stdDeviation="1.31"/>
      <feFlood flood-color="#000" flood-opacity=".75"/>
      <feComposite in2="blur" operator="in"/>
      <feComposite in="SourceGraphic"/>
    </filter>
  </defs>
  <g class="cls-1">
    <path class="cls-2" d="M13.71,13.31l-.07,2.12c-1.68-.1-3.2-.16-4.56-.16.07,1.1.1,2.33.1,3.67,1.04,0,2.22-.03,3.54-.1v2c-1.34-.06-2.51-.09-3.54-.09,0,1.83.02,3.54.07,5.15h-2.23c.07-1.95.1-4.15.1-6.6s-.04-4.36-.1-6.02h6.69Z"/>
    <path class="cls-2" d="M22.66,21.11c0,1.63-.42,2.9-1.25,3.82s-1.82,1.38-2.95,1.38-2-.42-2.77-1.25c-.77-.84-1.15-2.01-1.15-3.53,0-1.63.42-2.91,1.26-3.84.84-.92,1.82-1.38,2.96-1.38,1.07,0,1.99.42,2.76,1.26s1.15,2.03,1.15,3.55ZM20.55,21.4c0-.94-.18-1.72-.55-2.36-.37-.64-.84-.95-1.43-.95s-1.03.3-1.39.89c-.36.59-.54,1.34-.54,2.23,0,.94.18,1.72.55,2.36.37.64.84.95,1.43.95s1.03-.3,1.39-.89c.36-.59.54-1.34.54-2.23Z"/>
    <path class="cls-2" d="M29.44,16.72l-.47,2.27c-.4-.19-.8-.29-1.21-.29-.79,0-1.31.43-1.57,1.28,0,2.58.02,4.56.05,5.95h-2.15c.09-1.94.14-3.53.14-4.77,0-1.54-.13-2.99-.4-4.37l2.06-.27c.09.71.14,1.13.14,1.25h.13c.5-.91,1.15-1.37,1.98-1.37.39,0,.82.11,1.31.32Z"/>
    <path class="cls-2" d="M46.47,25.92h-2.35c0-1.1-.06-2.95-.17-5.56-.11-2.61-.17-4.23-.18-4.88h-.12c-.05.39-.2,1.1-.43,2.15-.23,1.05-.67,2.59-1.3,4.62-.64,2.04-.96,3.26-.96,3.66h-1.78c0-.41-.31-1.64-.92-3.69-.61-2.05-1.01-3.48-1.2-4.3s-.34-1.63-.45-2.44h-.12c0,.81-.07,2.54-.2,5.19s-.19,4.4-.19,5.24h-2.13c0-.19.2-2.13.59-5.82s.59-5.95.59-6.79h3.12c0,.72.33,2.32.99,4.79.66,2.47.99,4.05.99,4.74h.12c0-.7.38-2.28,1.13-4.75s1.13-4.06,1.13-4.78h3.1c0,1.34.13,3.72.38,7.15.25,3.43.38,5.25.38,5.46Z"/>
    <path class="cls-2" d="M55.37,20.33c0,.33-.02.76-.05,1.29l-5.2.11c.08.73.34,1.34.78,1.82s1.03.73,1.76.73c.81,0,1.67-.15,2.58-.44l-.16,1.88c-.74.32-1.66.48-2.76.48-1.39,0-2.45-.47-3.19-1.41-.74-.94-1.11-2.06-1.11-3.38s.35-2.57,1.05-3.58,1.68-1.52,2.93-1.52c1.14,0,1.99.37,2.54,1.11.55.74.83,1.71.83,2.9ZM53.48,20.25c0-1.49-.53-2.23-1.58-2.23s-1.6.77-1.79,2.31l3.38-.08Z"/>
    <path class="cls-2" d="M64.12,25.92h-2.15c.12-1.63.18-3.29.18-4.96,0-1.01-.12-1.7-.38-2.06-.25-.36-.63-.54-1.14-.54-.61,0-1.19.25-1.74.75.03,2.52.04,4.79.04,6.81h-2.17c.1-2.02.15-3.61.15-4.77,0-1.54-.13-3-.4-4.37l2.07-.27.14,1.03h.13c.74-.76,1.58-1.14,2.54-1.14.83,0,1.49.23,1.99.7.5.47.75,1.33.75,2.59,0,.19,0,.44-.02.75-.01.31-.02.63-.02.96,0,.87.01,2.38.04,4.51Z"/>
    <path class="cls-2" d="M70.7,24.11l-.14,1.72c-.38.19-.85.29-1.42.29-.87,0-1.53-.28-1.97-.85-.44-.57-.66-1.66-.66-3.28,0-.98,0-2.08.02-3.31-.27,0-.65.02-1.11.06l.06-1.91c.41.04.8.06,1.15.06,0-.34.03-1.24.06-2.7l1.91-.28c-.08,1.29-.12,2.28-.12,2.98.45,0,1.13-.03,2.03-.08l-.06,1.93c-.82-.04-1.48-.06-1.99-.06-.01.86-.02,1.76-.02,2.7,0,1.15.1,1.92.29,2.31.19.39.54.59,1.03.59.3,0,.61-.05.95-.17Z"/>
    <path class="cls-2" d="M78.48,25.91l-1.91.08c-.09-.27-.13-.52-.13-.74h-.1c-.59.61-1.39.91-2.4.91-.67,0-1.23-.22-1.68-.67-.44-.45-.67-1.04-.67-1.79,0-.98.35-1.79,1.04-2.41.69-.63,1.9-.96,3.64-1,.01-.12.02-.23.02-.33,0-.7-.14-1.16-.42-1.38s-.79-.33-1.54-.33c-.81,0-1.61.13-2.38.39l.18-1.78c.73-.3,1.77-.46,3.1-.46.97,0,1.73.25,2.26.74.53.49.8,1.35.8,2.58,0,.27,0,.77-.03,1.48s-.03,1.2-.03,1.43c0,1.34.09,2.43.26,3.28ZM76.33,23.9c-.03-.87-.05-1.62-.05-2.26-1.84,0-2.75.56-2.75,1.68,0,.77.4,1.15,1.21,1.15.64,0,1.17-.19,1.59-.57Z"/>
    <path class="cls-2" d="M82.45,25.92h-2.2c.08-2.21.12-4.61.12-7.2s-.08-4.66-.25-6.42l2.33-.16c-.08,1.83-.12,4.02-.12,6.58s.04,5,.12,7.2Z"/>
    <path class="cls-2" d="M96.63,25.92h-2.29c.05-2.14.08-3.99.08-5.56h-4.07c0,1.41.03,3.26.08,5.56h-2.29c.07-2.13.1-4.33.1-6.6s-.04-4.3-.1-6.02h2.29c-.06,1.82-.1,3.49-.1,5.04h4.1c0-1.36-.03-3.04-.1-5.04h2.29c-.08,1.64-.11,3.65-.11,6.02s.04,4.67.11,6.6Z"/>
    <path class="cls-2" d="M105.7,20.33c0,.33-.02.76-.05,1.29l-5.2.11c.08.73.34,1.34.78,1.82s1.03.73,1.76.73c.81,0,1.67-.15,2.58-.44l-.16,1.88c-.74.32-1.66.48-2.76.48-1.39,0-2.45-.47-3.19-1.41-.74-.94-1.11-2.06-1.11-3.38s.35-2.57,1.05-3.58,1.68-1.52,2.93-1.52c1.14,0,1.99.37,2.54,1.11.55.74.83,1.71.83,2.9ZM103.81,20.25c0-1.49-.53-2.23-1.58-2.23s-1.6.77-1.79,2.31l3.38-.08Z"/>
    <path class="cls-2" d="M113.73,25.91l-1.9.08c-.09-.27-.13-.52-.13-.74h-.1c-.59.61-1.39.91-2.4.91-.67,0-1.23-.22-1.68-.67-.44-.45-.67-1.04-.67-1.79,0-.98.35-1.79,1.04-2.41.69-.63,1.9-.96,3.64-1,.01-.12.02-.23.02-.33,0-.7-.14-1.16-.42-1.38s-.79-.33-1.54-.33c-.81,0-1.61.13-2.38.39l.18-1.78c.73-.3,1.77-.46,3.1-.46.97,0,1.73.25,2.26.74.53.49.79,1.35.79,2.58,0,.27,0,.77-.03,1.48-.02.72-.03,1.2-.03,1.43,0,1.34.09,2.43.26,3.28ZM111.57,23.9c-.03-.87-.05-1.62-.05-2.26-1.84,0-2.75.56-2.75,1.68,0,.77.4,1.15,1.21,1.15.64,0,1.17-.19,1.59-.57Z"/>
    <path class="cls-2" d="M117.69,25.92h-2.2c.08-2.21.12-4.61.12-7.2s-.08-4.66-.25-6.42l2.33-.16c-.08,1.83-.12,4.02-.12,6.58s.04,5,.12,7.2Z"/>
    <path class="cls-2" d="M124.33,24.11l-.14,1.72c-.38.19-.85.29-1.42.29-.87,0-1.53-.28-1.97-.85-.44-.57-.66-1.66-.66-3.28,0-.98,0-2.08.02-3.31-.27,0-.65.02-1.11.06l.06-1.91c.41.04.8.06,1.15.06,0-.34.03-1.24.07-2.7l1.91-.28c-.08,1.29-.12,2.28-.12,2.98.45,0,1.13-.03,2.03-.08l-.07,1.93c-.82-.04-1.48-.06-1.99-.06-.01.86-.02,1.76-.02,2.7,0,1.15.1,1.92.29,2.31.19.39.54.59,1.03.59.3,0,.61-.05.95-.17Z"/>
    <path class="cls-2" d="M132.84,25.92h-2.15c.12-1.63.18-3.22.18-4.77,0-1.15-.12-1.9-.36-2.26s-.64-.54-1.2-.54c-.59,0-1.16.24-1.73.71,0,2.75.03,5.03.08,6.86h-2.15c.06-2,.09-4.4.09-7.2,0-2.58-.08-4.72-.25-6.42l2.29-.16c-.08,2.08-.12,3.89-.12,5.42h.1c.71-.78,1.52-1.17,2.44-1.17.87,0,1.55.24,2.04.71.49.47.74,1.3.74,2.49,0,.12,0,.37-.02.75-.01.38-.02.63-.02.75,0,1.08.01,2.69.04,4.82Z"/>
    <path class="cls-2" d="M147.65,25.92h-2.58c0-.43-.24-1.63-.73-3.62h-3.73c-.51,1.96-.76,3.17-.76,3.62h-2.43c0-.25.63-2.32,1.89-6.2,1.26-3.88,1.88-6.02,1.88-6.41h3.05c0,.37.57,2.48,1.71,6.32,1.14,3.85,1.71,5.94,1.71,6.29ZM143.92,20.45c-.92-3.33-1.38-5.13-1.38-5.41h-.13c0,.25-.48,2.05-1.43,5.41h2.94Z"/>
    <path class="cls-2" d="M160.34,16.72c0,.37-.45,1.88-1.34,4.53-.9,2.65-1.34,4.21-1.34,4.67h-1.88c0-.3-.22-1.21-.66-2.74-.55-1.91-.9-3.21-1.05-3.9h-.13c-.14.67-.47,1.95-1,3.86-.43,1.51-.64,2.44-.64,2.79h-1.89c0-.39-.43-1.96-1.28-4.71-.85-2.75-1.28-4.24-1.28-4.49h2.33c0,.26.24,1.37.71,3.33.47,1.95.71,3.11.71,3.48h.12c0-.45.27-1.6.81-3.47.54-1.87.81-2.98.81-3.34h1.9c0,.25.26,1.36.79,3.34.53,1.98.79,3.14.79,3.47h.11c0-.36.24-1.46.71-3.3.48-1.84.71-3.01.71-3.51h2.01Z"/>
    <path class="cls-2" d="M168.07,25.91l-1.91.08c-.09-.27-.13-.52-.13-.74h-.11c-.59.61-1.39.91-2.4.91-.67,0-1.23-.22-1.67-.67-.44-.45-.67-1.04-.67-1.79,0-.98.35-1.79,1.04-2.41.69-.63,1.9-.96,3.64-1,.01-.12.02-.23.02-.33,0-.7-.14-1.16-.42-1.38-.28-.22-.79-.33-1.54-.33-.81,0-1.61.13-2.38.39l.18-1.78c.73-.3,1.77-.46,3.1-.46.97,0,1.73.25,2.26.74.53.49.8,1.35.8,2.58,0,.27,0,.77-.03,1.48-.02.72-.03,1.2-.03,1.43,0,1.34.09,2.43.26,3.28ZM165.92,23.9c-.03-.87-.05-1.62-.05-2.26-1.84,0-2.75.56-2.75,1.68,0,.77.4,1.15,1.21,1.15.63,0,1.17-.19,1.59-.57Z"/>
    <path class="cls-2" d="M174.95,16.72l-.47,2.27c-.4-.19-.8-.29-1.21-.29-.79,0-1.31.43-1.57,1.28,0,2.58.02,4.56.05,5.95h-2.15c.09-1.94.14-3.53.14-4.77,0-1.54-.13-2.99-.4-4.37l2.06-.27c.09.71.14,1.13.14,1.25h.13c.5-.91,1.15-1.37,1.98-1.37.39,0,.82.11,1.31.32Z"/>
    <path class="cls-2" d="M183.01,20.33c0,.33-.02.76-.05,1.29l-5.2.11c.08.73.34,1.34.78,1.82.45.48,1.03.73,1.76.73.81,0,1.67-.15,2.58-.44l-.16,1.88c-.74.32-1.66.48-2.76.48-1.39,0-2.45-.47-3.19-1.41-.74-.94-1.11-2.06-1.11-3.38s.35-2.57,1.05-3.58c.7-1.01,1.68-1.52,2.93-1.52,1.14,0,1.99.37,2.54,1.11.55.74.83,1.71.83,2.9ZM181.12,20.25c0-1.49-.53-2.23-1.58-2.23s-1.6.77-1.79,2.31l3.38-.08Z"/>
    <path class="cls-2" d="M191.76,25.92h-2.15c.12-1.63.18-3.29.18-4.96,0-1.01-.12-1.7-.38-2.06-.25-.36-.63-.54-1.14-.54-.61,0-1.19.25-1.74.75.03,2.52.04,4.79.04,6.81h-2.17c.1-2.02.14-3.61.14-4.77,0-1.54-.13-3-.4-4.37l2.07-.27.14,1.03h.13c.74-.76,1.58-1.14,2.54-1.14.83,0,1.49.23,1.99.7.5.47.75,1.33.75,2.59,0,.19,0,.44-.02.75-.01.31-.02.63-.02.96,0,.87.01,2.38.04,4.51Z"/>
    <path class="cls-2" d="M200.57,20.33c0,.33-.02.76-.05,1.29l-5.2.11c.08.73.34,1.34.78,1.82.45.48,1.03.73,1.76.73.81,0,1.67-.15,2.58-.44l-.16,1.88c-.74.32-1.66.48-2.76.48-1.39,0-2.45-.47-3.19-1.41-.74-.94-1.11-2.06-1.11-3.38s.35-2.57,1.05-3.58c.7-1.01,1.68-1.52,2.93-1.52,1.14,0,1.99.37,2.54,1.11.55.74.83,1.71.83,2.9ZM198.68,20.25c0-1.49-.53-2.23-1.58-2.23s-1.6.77-1.79,2.31l3.38-.08Z"/>
    <path class="cls-2" d="M207.52,23.28c0,1.94-1.19,2.91-3.58,2.91-.87,0-1.63-.11-2.29-.34l.27-1.91c.67.29,1.34.44,2.01.44s1.09-.06,1.34-.19c.25-.13.38-.34.38-.65,0-.47-.45-.92-1.36-1.35-.79-.37-1.37-.74-1.73-1.1-.5-.5-.74-1.12-.74-1.85,0-.86.27-1.55.8-2.07.53-.52,1.31-.79,2.33-.79.95,0,1.7.1,2.25.3l-.28,1.92c-.61-.28-1.26-.43-1.97-.43-.86,0-1.29.27-1.29.79,0,.27.09.49.27.65.18.17.56.37,1.12.62.78.34,1.35.69,1.7,1.06.51.52.76,1.18.76,1.99Z"/>
    <path class="cls-2" d="M214.45,23.28c0,1.94-1.19,2.91-3.58,2.91-.87,0-1.63-.11-2.29-.34l.27-1.91c.67.29,1.34.44,2.01.44s1.09-.06,1.34-.19c.25-.13.38-.34.38-.65,0-.47-.45-.92-1.36-1.35-.79-.37-1.37-.74-1.73-1.1-.5-.5-.74-1.12-.74-1.85,0-.86.27-1.55.8-2.07.53-.52,1.31-.79,2.33-.79.95,0,1.7.1,2.25.3l-.28,1.92c-.61-.28-1.26-.43-1.97-.43-.86,0-1.29.27-1.29.79,0,.27.09.49.27.65.18.17.56.37,1.12.62.78.34,1.35.69,1.7,1.06.51.52.76,1.18.76,1.99Z"/>
  </g>
</svg>