<?xml version="1.0" encoding="UTF-8"?>
<svg id="Layer_1" data-name="Layer 1" xmlns="http://www.w3.org/2000/svg" xmlns:xlink="http://www.w3.org/1999/xlink" viewBox="0 0 300 75">
  <defs>
    <style>
      .cls-1 {
        filter: url(#drop-shadow-2);
      }

      .cls-2 {
        fill: #fff;
        stroke: #009245;
        stroke-miterlimit: 10;
        stroke-width: .43px;
      }
    </style>
    <filter id="drop-shadow-2" filterUnits="userSpaceOnUse">
      <feOffset dx=".43" dy=".43"/>
      <feGaussianBlur result="blur" stdDeviation="1.08"/>
      <feFlood flood-color="#000" flood-opacity=".75"/>
      <feComposite in2="blur" operator="in"/>
      <feComposite in="SourceGraphic"/>
    </filter>
  </defs>
  <g class="cls-1">
    <path class="cls-2" d="M81.11,26.55l-.13,3.86c-2.39-.18-4.65-.27-6.76-.27-.02,2.26-.04,4.78-.04,7.55,0,4.31.07,8.38.2,12.22h-5.02c.16-3.8.23-7.88.23-12.22,0-2.73-.02-5.24-.07-7.55-1.69,0-4,.1-6.94.29l.14-3.88h18.39Z"/>
    <path class="cls-2" d="M96.67,49.89l-4.23.14c-.19-.5-.29-.96-.29-1.36h-.23c-1.32,1.12-3.09,1.69-5.33,1.69-1.5,0-2.74-.42-3.72-1.25s-1.48-1.94-1.48-3.31c0-1.82.77-3.31,2.31-4.47,1.54-1.16,4.23-1.78,8.08-1.85.02-.22.04-.42.04-.61,0-1.29-.31-2.14-.93-2.56-.62-.41-1.76-.62-3.43-.62-1.81,0-3.57.24-5.29.72l.39-3.3c1.63-.56,3.92-.84,6.89-.84,2.16,0,3.84.46,5.01,1.36,1.18.91,1.77,2.5,1.77,4.77,0,.5-.02,1.42-.06,2.75s-.06,2.21-.06,2.66c0,2.48.19,4.5.57,6.08ZM91.88,46.16c-.07-1.61-.11-3.01-.11-4.18-4.08,0-6.12,1.03-6.12,3.1,0,1.42.9,2.14,2.69,2.14,1.41,0,2.59-.35,3.53-1.06Z"/>
    <path class="cls-2" d="M116.58,49.91h-5.49c0-.44-.91-1.94-2.73-4.49-1.82-2.55-2.98-3.83-3.48-3.83h-.23c0,2.45.07,5.23.22,8.33h-4.75c.14-5.59.22-10.03.22-13.33,0-4.57-.19-8.53-.56-11.9l5.1-.29c-.17,4.55-.25,8.61-.25,12.18,0,.46,0,1.34.02,2.66h.25c.34,0,1.29-.97,2.85-2.9,1.57-1.93,2.35-3.09,2.35-3.47h5.35c0,.37-.81,1.41-2.44,3.1s-2.94,2.87-3.95,3.52v.27c1.11.78,2.65,2.55,4.6,5.3,1.96,2.76,2.93,4.38,2.93,4.85Z"/>
    <path class="cls-2" d="M134.45,39.55c0,.61-.04,1.41-.11,2.39l-11.56.2c.17,1.35.75,2.48,1.74,3.37.99.9,2.3,1.35,3.91,1.35,1.79,0,3.7-.27,5.72-.81l-.36,3.48c-1.65.6-3.7.9-6.14.9-3.09,0-5.45-.87-7.1-2.6-1.65-1.73-2.47-3.82-2.47-6.26s.78-4.76,2.34-6.63,3.73-2.81,6.5-2.81c2.54,0,4.42.69,5.65,2.06,1.23,1.38,1.85,3.16,1.85,5.37ZM130.25,39.39c0-2.75-1.17-4.13-3.52-4.13s-3.56,1.42-3.98,4.27l7.5-.14Z"/>
    <path class="cls-2" d="M163.29,32.66c0,2.86-1.06,4.97-3.18,6.33-2.12,1.36-4.73,2.05-7.81,2.05-.56,0-.96-.01-1.2-.04,0,2.25.07,5.22.2,8.9h-5.04c.16-3.46.23-7.53.23-12.22,0-4.31-.08-8.02-.23-11.14h3.12c.44,0,1.29-.02,2.55-.05,1.26-.04,2.34-.05,3.27-.05,2.27,0,4.19.51,5.76,1.54,1.57,1.03,2.35,2.59,2.35,4.68ZM158.66,33.65c0-2.56-1.7-3.84-5.1-3.84-.85,0-1.75.09-2.69.27.13,2.26.2,4.82.2,7.68.3.02.65.04,1.04.04,4.37,0,6.55-1.38,6.55-4.14Z"/>
    <path class="cls-2" d="M182.29,49.91h-4.77c.26-3.03.39-5.97.39-8.83,0-2.13-.27-3.53-.81-4.19-.54-.66-1.42-1-2.66-1-1.3,0-2.58.44-3.84,1.31,0,5.08.06,9.32.18,12.7h-4.77c.13-3.71.2-8.15.2-13.33,0-4.77-.19-8.74-.56-11.9l5.08-.29c-.18,3.85-.27,7.2-.27,10.05h.23c1.58-1.45,3.38-2.17,5.42-2.17,1.93,0,3.44.44,4.53,1.31s1.64,2.41,1.64,4.61c0,.23-.02.69-.05,1.39s-.04,1.16-.04,1.39c0,2,.03,4.98.09,8.93Z"/>
    <path class="cls-2" d="M203.57,40.99c0,3.01-.93,5.37-2.78,7.07-1.85,1.7-4.04,2.55-6.55,2.55s-4.44-.77-6.15-2.32-2.57-3.73-2.57-6.54c0-3.03.93-5.39,2.8-7.1,1.87-1.71,4.05-2.57,6.57-2.57,2.38,0,4.42.78,6.13,2.34,1.7,1.56,2.56,3.75,2.56,6.58ZM198.88,41.53c0-1.73-.41-3.19-1.22-4.37s-1.87-1.77-3.18-1.77-2.3.55-3.1,1.65c-.8,1.1-1.19,2.48-1.19,4.13,0,1.73.41,3.19,1.22,4.37.81,1.18,1.87,1.77,3.18,1.77s2.3-.55,3.1-1.65c.8-1.1,1.19-2.48,1.19-4.13Z"/>
    <path class="cls-2" d="M217.44,46.55l-.31,3.19c-.84.36-1.89.54-3.16.54-1.94,0-3.4-.53-4.38-1.58s-1.47-3.08-1.47-6.08c0-1.81.01-3.85.04-6.14-.61,0-1.44.04-2.48.11l.13-3.54c.92.07,1.78.11,2.57.11.01-.63.06-2.3.14-5.01l4.25-.52c-.18,2.38-.27,4.22-.27,5.53,1,0,2.51-.05,4.5-.14l-.14,3.57c-1.82-.07-3.3-.11-4.43-.11-.02,1.59-.04,3.26-.04,5.01,0,2.13.22,3.56.65,4.28.43.72,1.19,1.09,2.28,1.09.66,0,1.36-.1,2.12-.31Z"/>
    <path class="cls-2" d="M237.42,40.99c0,3.01-.93,5.37-2.78,7.07-1.85,1.7-4.04,2.55-6.55,2.55s-4.44-.77-6.15-2.32-2.57-3.73-2.57-6.54c0-3.03.93-5.39,2.8-7.1,1.87-1.71,4.05-2.57,6.57-2.57,2.38,0,4.42.78,6.13,2.34,1.7,1.56,2.56,3.75,2.56,6.58ZM232.74,41.53c0-1.73-.41-3.19-1.22-4.37-.81-1.18-1.87-1.77-3.18-1.77s-2.3.55-3.1,1.65c-.8,1.1-1.19,2.48-1.19,4.13,0,1.73.41,3.19,1.22,4.37.81,1.18,1.87,1.77,3.18,1.77s2.3-.55,3.1-1.65c.8-1.1,1.19-2.48,1.19-4.13Z"/>
  </g>
</svg>